<svg width="34" height="34" viewBox="0 0 34 34" fill="none" xmlns="http://www.w3.org/2000/svg">
<g clip-path="url(#clip0_78_1367)">
<path d="M17.0019 11.1389C13.8221 11.1389 11.2572 13.6637 11.2572 16.7939C11.2572 19.9241 13.8221 22.4489 17.0019 22.4489C20.1818 22.4489 22.7467 19.9241 22.7467 16.7939C22.7467 13.6637 20.1818 11.1389 17.0019 11.1389ZM17.0019 20.4704C14.947 20.4704 13.2671 18.8216 13.2671 16.7939C13.2671 14.7661 14.942 13.1174 17.0019 13.1174C19.0619 13.1174 20.7368 14.7661 20.7368 16.7939C20.7368 18.8216 19.0569 20.4704 17.0019 20.4704ZM24.3216 10.9075C24.3216 11.6409 23.7217 12.2266 22.9817 12.2266C22.2367 12.2266 21.6417 11.636 21.6417 10.9075C21.6417 10.1791 22.2417 9.58854 22.9817 9.58854C23.7217 9.58854 24.3216 10.1791 24.3216 10.9075ZM28.1265 12.2462C28.0415 10.4794 27.6315 8.91427 26.3166 7.62479C25.0066 6.33531 23.4167 5.93173 21.6217 5.84314C19.7718 5.73979 14.227 5.73979 12.3771 5.84314C10.5872 5.92681 8.99726 6.33039 7.68231 7.61987C6.36737 8.90935 5.96238 10.4744 5.87239 12.2413C5.76739 14.0623 5.76739 19.5205 5.87239 21.3415C5.95738 23.1084 6.36737 24.6735 7.68231 25.963C8.99726 27.2524 10.5822 27.656 12.3771 27.7446C14.227 27.848 19.7718 27.848 21.6217 27.7446C23.4167 27.6609 25.0066 27.2574 26.3166 25.963C27.6265 24.6735 28.0365 23.1084 28.1265 21.3415C28.2315 19.5205 28.2315 14.0673 28.1265 12.2462ZM25.7366 23.2954C25.3466 24.2601 24.5916 25.0032 23.6067 25.392C22.1317 25.9679 18.6319 25.835 17.0019 25.835C15.372 25.835 11.8671 25.963 10.3972 25.392C9.41724 25.0082 8.66227 24.265 8.26729 23.2954C7.68231 21.8435 7.81731 18.3983 7.81731 16.7939C7.81731 15.1894 7.68731 11.7393 8.26729 10.2923C8.65727 9.32769 9.41224 8.58452 10.3972 8.1957C11.8721 7.61987 15.372 7.75275 17.0019 7.75275C18.6319 7.75275 22.1367 7.62479 23.6067 8.1957C24.5866 8.57959 25.3416 9.32277 25.7366 10.2923C26.3216 11.7442 26.1866 15.1894 26.1866 16.7939C26.1866 18.3983 26.3216 21.8484 25.7366 23.2954Z" fill="#0E0F1D"/>
</g>
<defs>
<clipPath id="clip0_78_1367">
<rect width="22.3991" height="25.199" fill="white" transform="translate(5.79736 4.19922)"/>
</clipPath>
</defs>
</svg>
