<?xml version="1.0" encoding="UTF-8"?>
<svg xmlns="http://www.w3.org/2000/svg" xmlns:xlink="http://www.w3.org/1999/xlink" width="16px" height="16px" viewBox="0 0 16 16" version="1.1">
<g id="surface1">
<path style=" stroke:none;fill-rule:nonzero;fill:rgb(90.588235%,31.764706%,28.627451%);fill-opacity:1;" d="M 8 0.015625 C 3.738281 0.015625 0.285156 3.46875 0.285156 7.726562 C 0.285156 11.988281 3.738281 15.441406 8 15.441406 C 12.261719 15.441406 15.714844 11.988281 15.714844 7.726562 C 15.710938 3.46875 12.257812 0.0195312 8 0.015625 Z M 8 14.039062 C 4.515625 14.039062 1.6875 11.214844 1.6875 7.726562 C 1.6875 4.242188 4.515625 1.417969 8 1.417969 C 11.484375 1.417969 14.3125 4.242188 14.3125 7.726562 C 14.308594 11.210938 11.484375 14.035156 8 14.039062 Z M 8 14.039062 "/>
<path style=" stroke:none;fill-rule:nonzero;fill:rgb(90.588235%,31.764706%,28.627451%);fill-opacity:1;" d="M 11.050781 5.09375 L 6.667969 8.851562 L 5.019531 6.964844 C 4.785156 6.65625 4.34375 6.597656 4.039062 6.835938 C 3.730469 7.070312 3.671875 7.511719 3.90625 7.816406 C 3.925781 7.84375 3.945312 7.867188 3.96875 7.890625 L 6.074219 10.292969 C 6.324219 10.582031 6.761719 10.613281 7.054688 10.363281 L 11.964844 6.15625 C 12.25 5.894531 12.265625 5.449219 12.003906 5.164062 C 11.753906 4.894531 11.339844 4.863281 11.050781 5.089844 Z M 11.050781 5.09375 "/>
</g>
</svg>
