<svg width="28" height="28" viewBox="0 0 28 28" fill="none" xmlns="http://www.w3.org/2000/svg">
<path d="M14 0.0244141C6.54407 0.0244141 0.5 6.06848 0.5 13.5244C0.5 20.9803 6.54407 27.0244 14 27.0244C21.4559 27.0244 27.5 20.9803 27.5 13.5244C27.491 6.07217 21.4522 0.03338 14 0.0244141ZM14 24.5699C7.90003 24.5699 2.95455 19.6244 2.95455 13.5244C2.95455 7.42444 7.90003 2.47896 14 2.47896C20.1 2.47896 25.0455 7.42444 25.0455 13.5244C25.0386 19.6217 20.0973 24.563 14 24.5699Z" fill="#E75149"/>
<path d="M19.3373 8.9112L11.6683 15.4879L8.7866 12.1901C8.37469 11.6516 7.60468 11.5488 7.0662 11.9607C6.52772 12.3726 6.42487 13.1426 6.83678 13.6811C6.87053 13.7248 6.90692 13.7665 6.94595 13.8055L10.6278 18.0137C11.0708 18.5174 11.8361 18.5717 12.3461 18.1366L20.937 10.7729C21.4348 10.313 21.4654 9.5367 21.0055 9.03883C20.5699 8.56733 19.8447 8.51142 19.3416 8.91014L19.3373 8.9112Z" fill="#E75149"/>
</svg>
