<svg width="31" height="21" viewBox="0 0 31 21" fill="none" xmlns="http://www.w3.org/2000/svg">
<path d="M3.77248 0H26.96C29.1475 0 30.25 1.0325 30.25 3.1325V17.8675C30.25 19.95 29.1475 21 26.96 21H3.77248C1.58498 21 0.482483 19.95 0.482483 17.8675V3.1325C0.482483 1.0325 1.58498 0 3.77248 0ZM15.3575 15.05L27.1525 5.3725C27.5725 5.0225 27.905 4.2175 27.38 3.5C26.8725 2.7825 25.945 2.765 25.3325 3.2025L15.3575 9.9575L5.39998 3.2025C4.78748 2.765 3.85998 2.7825 3.35248 3.5C2.82748 4.2175 3.15998 5.0225 3.57998 5.3725L15.3575 15.05Z" fill="#0E0F1D"/>
</svg>
