<svg width="23" height="32" viewBox="0 0 23 32" fill="none" xmlns="http://www.w3.org/2000/svg">
<g clip-path="url(#clip0_523_252)">
<path d="M10.0959 30.4781C7.00332 26.6067 0.125 17.2236 0.125 11.9531C0.125 5.55862 5.21768 0.375 11.5 0.375C17.7799 0.375 22.875 5.55862 22.875 11.9531C22.875 17.2236 15.9434 26.6067 12.9041 30.4781C12.1754 31.4008 10.8246 31.4008 10.0959 30.4781V30.4781ZM11.5 15.8125C13.5913 15.8125 15.2917 14.0818 15.2917 11.9531C15.2917 9.82444 13.5913 8.09375 11.5 8.09375C9.40866 8.09375 7.70833 9.82444 7.70833 11.9531C7.70833 14.0818 9.40866 15.8125 11.5 15.8125Z" fill="#0E0F1D"/>
</g>
<defs>
<clipPath id="clip0_523_252">
<rect width="22.75" height="30.875" fill="white" transform="translate(0.125 0.375)"/>
</clipPath>
</defs>
</svg>
