<svg width="30" height="30" viewBox="0 0 30 30" fill="none" xmlns="http://www.w3.org/2000/svg">
<path d="M1.39849 4.74029L5.27586 0.866505C5.54937 0.591785 5.87447 0.373813 6.23247 0.225111C6.59047 0.0764088 6.97433 -9.29112e-05 7.36199 8.46828e-08C8.15203 8.46828e-08 8.89473 0.309466 9.45176 0.866505L13.624 5.03883C13.8987 5.31235 14.1167 5.63745 14.2654 5.99546C14.4141 6.35347 14.4906 6.73734 14.4905 7.125C14.4905 7.91505 14.1811 8.65777 13.624 9.21481L10.5731 12.2658C11.2873 13.8399 12.2802 15.2719 13.5039 16.4927C14.7245 17.7194 16.1564 18.716 17.7308 19.4345L20.7817 16.3835C21.0552 16.1088 21.3803 15.8908 21.7383 15.7421C22.0963 15.5934 22.4802 15.5169 22.8678 15.517C23.6579 15.517 24.4006 15.8265 24.9576 16.3835L29.1335 20.5522C29.4086 20.8262 29.6267 21.1519 29.7754 21.5106C29.9241 21.8692 30.0005 22.2537 30 22.642C30 23.432 29.6905 24.1748 29.1335 24.7318L25.2634 28.6019C24.3751 29.4939 23.1482 30 21.8885 30C21.6227 30 21.3678 29.9782 21.1166 29.9345C16.2089 29.1262 11.3413 26.5158 7.41296 22.591C3.48826 18.6699 0.881504 13.8058 0.0623414 8.8835C-0.185228 7.37985 0.313552 5.83252 1.39849 4.74029Z" fill="#0E0F1D"/>
</svg>
