<svg width="35" height="34" viewBox="0 0 35 34" fill="none" xmlns="http://www.w3.org/2000/svg">
<g clip-path="url(#clip0_78_1375)">
<path d="M29.9969 9.38618C29.0533 9.78442 28.0524 10.0458 27.0276 10.1617C28.0951 9.55216 28.9147 8.58692 29.3007 7.43685C28.2859 8.01056 27.1756 8.41478 26.0178 8.63203C25.0747 7.67486 23.7312 7.07666 22.2442 7.07666C19.389 7.07666 17.0742 9.2819 17.0742 12.0018C17.0742 12.3879 17.1199 12.7637 17.208 13.1243C12.9114 12.9188 9.10202 10.9581 6.5521 7.97822C6.10718 8.70565 5.85223 9.55179 5.85223 10.4543C5.85223 12.1631 6.76501 13.6705 8.15214 14.5538C7.33115 14.5293 6.52823 14.3181 5.8104 13.9377C5.81011 13.9583 5.81011 13.979 5.81011 13.9997C5.81011 16.386 7.59215 18.3767 9.95711 18.8292C9.19581 19.0264 8.39726 19.0553 7.62246 18.9136C8.2803 20.8703 10.1896 22.2942 12.4518 22.334C10.6825 23.655 8.45324 24.4424 6.03119 24.4424C5.61383 24.4424 5.20238 24.4191 4.79791 24.3736C7.0858 25.771 9.80326 26.5864 12.7228 26.5864C22.2322 26.5864 27.4321 19.0814 27.4321 12.573C27.4321 12.3593 27.4272 12.1469 27.4172 11.9358C28.4293 11.2387 29.3029 10.3753 29.9969 9.38618Z" fill="#0E0F1D"/>
</g>
<defs>
<clipPath id="clip0_78_1375">
<rect width="25.199" height="19.5992" fill="white" transform="translate(4.79797 6.99951)"/>
</clipPath>
</defs>
</svg>
