<svg width="99" height="96" viewBox="0 0 99 96" fill="none" xmlns="http://www.w3.org/2000/svg">
<path d="M94.1678 96H4.83217C2.44455 96 0.5 93.9681 0.5 91.4731V14.5996C0.5 12.1015 2.44455 10.0728 4.83217 10.0728H13.4934C14.4226 10.0728 15.1765 10.8293 15.1765 11.7618C15.1765 12.6944 14.4226 13.4509 13.4934 13.4509H4.83217C4.29988 13.4509 3.86605 13.9666 3.86605 14.6027V91.4731C3.86605 92.1092 4.29988 92.6249 4.83217 92.6249H94.1678C94.7001 92.6249 95.1339 92.1092 95.1339 91.4731V14.5996C95.1339 13.9635 94.7001 13.4478 94.1678 13.4478H85.5066C84.5774 13.4478 83.8235 12.6913 83.8235 11.7588C83.8235 10.8262 84.5774 10.0697 85.5066 10.0697H94.1678C96.5554 10.0697 98.5 12.1015 98.5 14.5965V91.4669C98.5 93.9681 96.5554 95.9969 94.1678 95.9969V96Z" fill="black"/>
<path d="M73.8669 13.4478H25.1331C24.2039 13.4478 23.45 12.6913 23.45 11.7588C23.45 10.8262 24.2039 10.0697 25.1331 10.0697H73.8669C74.7961 10.0697 75.5499 10.8262 75.5499 11.7588C75.5499 12.6913 74.7992 13.4478 73.8669 13.4478Z" fill="black"/>
<path d="M23.5885 23.5237H15.0411C13.2627 23.5237 11.8135 22.0693 11.8135 20.2845V3.23922C11.8135 1.4544 13.2627 0 15.0411 0H23.5885C25.3669 0 26.8161 1.4544 26.8161 3.23922V20.2845C26.8161 22.0693 25.3669 23.5237 23.5854 23.5237H23.5885ZM23.4531 20.1455V3.37508H15.1795V20.1424H23.4531V20.1455ZM83.962 23.5237H75.4146C73.6362 23.5237 72.187 22.0693 72.187 20.2845V3.23922C72.187 1.4544 73.6362 0 75.4146 0H83.962C85.7404 0 87.1896 1.4544 87.1896 3.23922V20.2845C87.1896 22.0693 85.7435 23.5237 83.962 23.5237ZM75.553 20.1455H83.8266V3.37508H75.553V20.1455ZM96.82 31.5399H2.1861C1.2569 31.5399 0.5 30.7834 0.5 29.8508C0.5 28.9183 1.25382 28.1617 2.18302 28.1617H96.817C97.7462 28.1617 98.5 28.9183 98.5 29.8508C98.5 30.7834 97.7462 31.5399 96.817 31.5399H96.82ZM21.6501 50.4533H11.0104C10.0812 50.4533 9.32741 49.6968 9.32741 48.7643V38.0863C9.32741 37.1537 10.0812 36.3972 11.0104 36.3972H21.6501C22.5793 36.3972 23.3331 37.1537 23.3331 38.0863V48.7643C23.3331 49.6968 22.5793 50.4533 21.647 50.4533H21.6501ZM12.6965 47.0783H19.9702V39.7784H12.6965V47.0783ZM43.7663 50.4533H33.1267C32.1975 50.4533 31.4436 49.6968 31.4436 48.7643V38.0863C31.4436 37.1537 32.1975 36.3972 33.1267 36.3972H43.7663C44.6955 36.3972 45.4494 37.1537 45.4494 38.0863V48.7643C45.4494 49.6968 44.6955 50.4533 43.7663 50.4533ZM34.8097 47.0783H42.0833V39.7784H34.8097V47.0783ZM65.8826 50.4533H55.2429C54.3137 50.4533 53.5599 49.6968 53.5599 48.7643V38.0863C53.5599 37.1537 54.3137 36.3972 55.2429 36.3972H65.8826C66.8118 36.3972 67.5656 37.1537 67.5656 38.0863V48.7643C67.5656 49.6968 66.8118 50.4533 65.8826 50.4533ZM56.9259 47.0783H64.1995V39.7784H56.9259V47.0783ZM87.9957 50.4533H77.356C76.4268 50.4533 75.673 49.6968 75.673 48.7643V38.0863C75.673 37.1537 76.4268 36.3972 77.356 36.3972H87.9957C88.9249 36.3972 89.6787 37.1537 89.6787 38.0863V48.7643C89.6787 49.6968 88.9249 50.4533 87.9957 50.4533ZM79.0421 47.0783H86.3158V39.7784H79.0421V47.0783ZM43.7694 69.1105H33.1297C32.2005 69.1105 31.4467 68.3539 31.4467 67.4214V56.7434C31.4467 55.8109 32.2005 55.0543 33.1297 55.0543H43.7694C44.6986 55.0543 45.4524 55.8109 45.4524 56.7434V67.4214C45.4524 68.3539 44.6986 69.1105 43.7694 69.1105ZM34.8128 65.7323H42.0864V58.4325H34.8128V65.7323ZM65.8856 69.1105H55.246C54.3168 69.1105 53.563 68.3539 53.563 67.4214V56.7434C53.563 55.8109 54.3168 55.0543 55.246 55.0543H65.8856C66.8148 55.0543 67.5687 55.8109 67.5687 56.7434V67.4214C67.5687 68.3539 66.8148 69.1105 65.8856 69.1105ZM56.929 65.7323H64.2026V58.4325H56.929V65.7323ZM87.9988 69.1105H77.3591C76.4299 69.1105 75.6761 68.3539 75.6761 67.4214V56.7434C75.6761 55.8109 76.4299 55.0543 77.3591 55.0543H87.9988C88.928 55.0543 89.6818 55.8109 89.6818 56.7434V67.4214C89.6818 68.3539 88.928 69.1105 87.9988 69.1105ZM79.0452 65.7323H86.3188V58.4325H79.0452V65.7323ZM21.6563 87.7645H11.0104C10.0812 87.7645 9.32741 87.008 9.32741 86.0755V75.3975C9.32741 74.4649 10.0812 73.7084 11.0104 73.7084H21.6501C22.5793 73.7084 23.3331 74.4649 23.3331 75.3975V86.0755C23.3331 87.008 22.5793 87.7645 21.647 87.7645H21.6563ZM12.7027 84.3864H19.9763V77.0865H12.7027V84.3864ZM43.7725 87.7645H33.1328C32.2036 87.7645 31.4498 87.008 31.4498 86.0755V75.3975C31.4498 74.4649 32.2036 73.7084 33.1328 73.7084H43.7725C44.7017 73.7084 45.4555 74.4649 45.4555 75.3975V86.0755C45.4555 87.008 44.7017 87.7645 43.7725 87.7645ZM34.8158 84.3864H42.0895V77.0865H34.8158V84.3864ZM65.8887 87.7645H55.2491C54.3198 87.7645 53.566 87.008 53.566 86.0755V75.3975C53.566 74.4649 54.3198 73.7084 55.2491 73.7084H65.8887C66.8179 73.7084 67.5717 74.4649 67.5717 75.3975V86.0755C67.5717 87.008 66.8179 87.7645 65.8887 87.7645ZM56.9321 84.3864H64.2057V77.0865H56.9321V84.3864ZM9.20127 64.3057C8.5459 63.648 8.5459 62.5765 9.20127 61.9187C9.85663 61.261 10.9212 61.261 11.5797 61.9187L13.6688 64.0154L21.084 56.5736C21.7393 55.9159 22.8039 55.9159 23.4624 56.5736C24.1177 57.2313 24.1177 58.2997 23.4624 58.9605L14.8595 67.5943C14.195 68.249 13.1334 68.249 12.4781 67.5943L9.20127 64.3057ZM75.5438 82.9628C74.8884 82.3051 74.8884 81.2336 75.5438 80.5759C76.1992 79.9182 77.2637 79.9182 77.9222 80.5759L80.0114 82.6726L87.4265 75.2307C88.0819 74.573 89.1495 74.573 89.8049 75.2307C90.4603 75.8884 90.4603 76.9569 89.8049 77.6177L81.2021 86.2515C80.5313 86.9061 79.4729 86.903 78.8206 86.2515L75.5438 82.9628Z" fill="black"/>
</svg>
