<svg width="102" height="109" viewBox="0 0 102 109" fill="none" xmlns="http://www.w3.org/2000/svg">
<g clip-path="url(#clip0_609_532)">
<path d="M26.6803 17.031H67.6088C68.4969 17.031 69.2157 16.3168 69.2157 15.4346C69.2157 14.5524 68.4969 13.8382 67.6088 13.8382H26.6803C25.7923 13.8382 25.0734 14.5524 25.0734 15.4346C25.0734 16.3168 25.7923 17.031 26.6803 17.031ZM26.6803 36.1919H67.6088C68.4969 36.1919 69.2157 35.4777 69.2157 34.5955C69.2157 33.7133 68.4969 32.9991 67.6088 32.9991H26.6803C25.7923 32.9991 25.0734 33.7133 25.0734 34.5955C25.0734 35.4777 25.7923 36.1919 26.6803 36.1919ZM26.6803 26.6114H67.6088C68.4969 26.6114 69.2157 25.8973 69.2157 25.015C69.2157 24.1328 68.4969 23.4187 67.6088 23.4187H26.6803C25.7923 23.4187 25.0734 24.1328 25.0734 25.015C25.0734 25.8973 25.7923 26.6114 26.6803 26.6114ZM100.59 20.5683L98.3169 18.3102C96.4331 16.4386 93.3821 16.4386 91.4983 18.3102L84.001 25.7586V7.98406C83.9968 3.57718 80.4003 0.00630155 75.9646 0H18.3225C13.8867 0.00420103 10.2924 3.57718 10.2861 7.98406V90.9062H1.60687C0.718861 90.9062 0 91.6203 0 92.5025V101.018C0.00422859 105.425 3.60065 108.996 8.03644 109.002H76.1802C76.2394 109.002 76.2965 108.998 76.3557 108.992C80.635 108.782 83.9989 105.276 84.0031 101.018V43.8231L100.592 27.3424C102.471 25.4709 102.471 22.4398 100.592 20.5683H100.59ZM8.03644 105.807C5.37454 105.805 3.21796 103.66 3.21584 101.018V94.0989H67.2875V100.699C67.2875 102.551 67.9112 104.352 69.0656 105.807H8.03644ZM80.7894 92.4815C80.7894 92.4815 80.7894 92.4941 80.7894 92.5025V100.699C80.7894 103.52 78.4869 105.807 75.6474 105.807C72.8079 105.807 70.5054 103.52 70.5054 100.699V92.5025C70.5054 91.6203 69.7866 90.9062 68.8986 90.9062C68.8626 90.9062 68.8267 90.9083 68.7907 90.9125C68.7548 90.9104 68.721 90.9062 68.6829 90.9062H13.5019V7.98406C13.504 5.33951 15.6627 3.19699 18.3225 3.19489H75.9667C78.6286 3.19699 80.7851 5.34161 80.7873 7.98406V28.9514L50.9989 58.5456H26.6803C25.7923 58.5456 25.0734 59.2598 25.0734 60.142C25.0734 61.0242 25.7923 61.7384 26.6803 61.7384H47.7852L41.4952 67.9874C41.4529 68.0294 41.4148 68.0735 41.3768 68.1197L41.3725 68.126H26.6803C25.7923 68.126 25.0734 68.8402 25.0734 69.7224C25.0734 70.6047 25.7923 71.3188 26.6803 71.3188H40.1991L38.0552 77.7065H26.6782C25.7902 77.7065 25.0713 78.4207 25.0713 79.3029C25.0713 80.1851 25.7902 80.8993 26.6782 80.8993H38.6789C38.7952 80.8993 38.9115 80.8867 39.0236 80.8615C39.2604 80.893 39.5014 80.8699 39.7297 80.7922L49.9587 77.404C49.9693 77.3998 49.9798 77.3956 49.9883 77.3914C50.0834 77.3578 50.1765 77.3158 50.2632 77.2633C50.278 77.2549 50.2928 77.2465 50.3076 77.236C50.3435 77.2129 50.3795 77.1877 50.4154 77.1625C50.4281 77.152 50.4408 77.1436 50.4535 77.1352C50.5 77.0995 50.5444 77.0595 50.5867 77.0175L56.3249 71.3167H67.6088C68.4969 71.3167 69.2157 70.6026 69.2157 69.7203C69.2157 68.8381 68.4969 68.124 67.6088 68.124H59.5407L80.7894 47.0138V92.4794V92.4815ZM43.3367 72.0729L46.4786 75.1943L41.7679 76.755L43.3388 72.075L43.3367 72.0729ZM49.4534 73.6336L44.9077 69.1175L83.5316 30.7453L83.538 30.739L87.7391 26.5652L92.2848 31.0813L49.4555 73.6315L49.4534 73.6336ZM98.3169 25.0844L94.5534 28.8233L90.0077 24.3072L93.7712 20.5683C94.3991 19.9444 95.4161 19.9444 96.044 20.5683L98.3169 22.8263C98.9427 23.4502 98.9427 24.4605 98.3169 25.0844Z" fill="black"/>
</g>
<defs>
<clipPath id="clip0_609_532">
<rect width="102" height="109" fill="white"/>
</clipPath>
</defs>
</svg>
