<svg width="100" height="100" viewBox="0 0 100 100" fill="none" xmlns="http://www.w3.org/2000/svg">
<path d="M95.3147 28.1251H82.814V31.2493H95.3147C96.178 31.2493 96.8758 31.949 96.8778 32.8123V89.0626C96.8778 89.9258 96.178 90.6236 95.3147 90.6256H4.68728C3.82399 90.6256 3.12618 89.9258 3.12419 89.0626V32.8123C3.12419 31.949 3.82399 31.2512 4.68728 31.2493H17.188V28.1251H4.68728C2.09941 28.1291 0.00199374 30.2245 0 32.8123V89.0626C0.00398748 91.6504 2.09941 93.7478 4.68728 93.7498H48.4379V96.8739H34.3741C33.5108 96.8739 32.811 97.5737 32.811 98.4369C32.811 99.3002 33.5108 100 34.3741 100H65.6259C66.4892 100 67.189 99.3002 67.189 98.4369C67.189 97.5737 66.4892 96.8739 65.6259 96.8739H51.5621V93.7498H95.3127C97.9006 93.7458 99.998 91.6504 100 89.0626V32.8123C99.996 30.2245 97.9006 28.1271 95.3127 28.1251H95.3147Z" fill="black"/>
<path d="M75.784 0H24.2199C22.0627 0 20.3142 1.74847 20.3142 3.90566V81.2513C20.3162 83.8391 22.4136 85.9364 25.0015 85.9384H75.0025C77.5904 85.9364 79.6878 83.8391 79.6898 81.2513V3.90566C79.6898 1.74847 77.9413 0 75.784 0ZM76.5656 81.2513C76.5636 82.1125 75.8658 82.8103 75.0025 82.8143H25.0015C24.1402 82.8123 23.4424 82.1145 23.4384 81.2513V3.90566C23.4384 3.47502 23.7893 3.12612 24.2199 3.12413H75.784C76.2147 3.12413 76.5636 3.47502 76.5656 3.90566V81.2513Z" fill="black"/>
<path d="M31.2519 11.719H68.7521C69.6154 11.719 70.3152 11.0192 70.3152 10.1559C70.3152 9.29263 69.6154 8.59285 68.7521 8.59285H31.2519C30.3886 8.59285 29.6888 9.29263 29.6888 10.1559C29.6888 11.0192 30.3886 11.719 31.2519 11.719ZM31.2519 17.9692H68.7521C69.6154 17.9692 70.3152 17.2694 70.3152 16.4062C70.3152 15.5429 69.6154 14.8431 68.7521 14.8431H31.2519C30.3886 14.8431 29.6888 15.5429 29.6888 16.4062C29.6888 17.2694 30.3886 17.9692 31.2519 17.9692ZM31.2519 24.2195H68.7521C69.6154 24.2195 70.3152 23.5197 70.3152 22.6564C70.3152 21.7931 69.6154 21.0933 68.7521 21.0933H31.2519C30.3886 21.0933 29.6888 21.7931 29.6888 22.6564C29.6888 23.5197 30.3886 24.2195 31.2519 24.2195ZM31.2519 30.4697H68.7521C69.6154 30.4697 70.3152 29.7699 70.3152 28.9067C70.3152 28.0434 69.6154 27.3436 68.7521 27.3436H31.2519C30.3886 27.3436 29.6888 28.0434 29.6888 28.9067C29.6888 29.7699 30.3886 30.4697 31.2519 30.4697ZM31.2519 36.72H68.7521C69.6154 36.72 70.3152 36.0202 70.3152 35.1569C70.3152 34.2936 69.6154 33.5938 68.7521 33.5938H31.2519C30.3886 33.5938 29.6888 34.2936 29.6888 35.1569C29.6888 36.0202 30.3886 36.72 31.2519 36.72ZM65.1514 60.3692C65.4644 59.7472 65.6279 59.0594 65.6279 58.3616C65.6618 56.0828 63.8415 54.2067 61.5627 54.1728C61.4989 54.1728 61.4331 54.1728 61.3693 54.1728H59.4234C59.4633 53.8439 59.4733 53.5109 59.4553 53.18C59.3217 51.8282 59.0247 48.6722 56.4866 47.3683C55.8746 47.0493 55.1927 46.8799 54.5029 46.8759C54.4251 46.8759 54.3473 46.8759 54.2676 46.8839C53.2727 46.9496 52.3337 47.3603 51.6119 48.0482C50.5194 49.1547 49.995 50.7018 50.1904 52.2429C50.1984 52.3526 50.1984 52.4622 50.1984 52.5639V52.9467C49.9791 53.477 49.4408 54.4938 49.034 55.2355H48.8386C48.5436 54.8905 48.1129 54.6912 47.6584 54.6892H37.5022C36.639 54.6892 35.9391 55.389 35.9391 56.2522C35.9391 57.1155 36.639 57.8153 37.5022 57.8153H46.0953V67.1897H42.1895C41.3262 67.1897 40.6264 67.8895 40.6264 68.7527C40.6264 69.616 41.3262 70.3158 42.1895 70.3158H47.6584C48.1947 70.3158 48.6931 70.0367 48.9782 69.5821H49.1118C49.347 69.5742 49.5723 69.5742 49.7837 69.5742C50.1326 69.7935 50.5074 69.9689 50.9002 70.0985C51.2012 70.1922 51.5142 70.2381 51.8293 70.24H52.244C52.2719 70.246 52.3018 70.25 52.3297 70.248H56.4009C56.4587 70.248 56.5165 70.248 56.5724 70.24V70.248H59.6826C62.0691 70.2121 63.9771 68.2523 63.9492 65.8659C63.9492 65.832 63.9492 65.7981 63.9412 65.7642C64.4038 65.0465 64.647 64.2111 64.645 63.3578C64.647 63.2362 64.643 63.1126 64.6291 62.991C64.9899 62.339 65.1793 61.6033 65.1753 60.8577C65.1753 60.6942 65.1674 60.5287 65.1514 60.3732V60.3692ZM61.4251 59.6116C61.3553 59.6196 61.3155 59.6655 61.4012 59.7213C61.8059 59.9545 62.0532 60.3872 62.0492 60.8537C62.0791 61.5116 61.5727 62.0679 60.9167 62.1038C60.9167 62.1038 60.7532 62.1576 60.8848 62.2294C61.2836 62.4606 61.5268 62.8913 61.5168 63.3538C61.5487 64.0137 61.0443 64.5759 60.3844 64.6118H60.2747C60.2289 64.6058 60.189 64.6377 60.181 64.6816C60.1731 64.7095 60.185 64.7394 60.2129 64.7514C60.5917 64.9926 60.823 65.4113 60.823 65.8599C60.8549 66.5218 60.3445 67.084 59.6826 67.1179H52.3317L51.8392 67.1099C51.4405 66.9843 51.1434 66.6653 50.7686 66.5078C50.4895 66.444 50.2024 66.4201 49.9173 66.4381C49.7059 66.4381 49.4647 66.446 49.2214 66.454V58.3596L50.4715 58.3516H50.4795C50.7367 58.3456 50.9719 58.2021 51.0976 57.9768C51.6757 56.9062 53.3246 54.0073 53.3246 53.3514V52.5619C53.3246 51.7804 53.1451 50.8972 53.7393 50.3349C53.9307 50.1435 54.1819 50.0259 54.451 49.998H54.5049C54.7002 50.004 54.8936 50.0558 55.0671 50.1455C56.0281 50.646 56.2474 52.4343 56.3411 53.4651C56.2274 54.5855 56.0181 55.692 55.717 56.7766C55.5835 57.285 56.2474 57.285 56.2474 57.285L61.3733 57.293C61.9415 57.2391 62.4479 57.6558 62.5017 58.226C62.5057 58.2699 62.5077 58.3117 62.5057 58.3556C62.5317 58.9916 62.0611 59.5379 61.4271 59.6056L61.4251 59.6116Z" fill="black"/>
</svg>
