<svg width="96" height="96" viewBox="0 0 96 96" fill="none" xmlns="http://www.w3.org/2000/svg">
<path d="M95.9969 59.7611C95.9969 59.6437 95.9846 59.5294 95.9629 59.4152C95.9629 59.409 95.9629 59.4028 95.9629 59.3967C95.9629 59.3843 95.9568 59.375 95.9537 59.3627C95.9475 59.3318 95.9352 59.304 95.9259 59.2762C95.9135 59.2299 95.8981 59.1867 95.8827 59.1404C95.8734 59.1126 95.8672 59.0817 95.8549 59.0508C95.8456 59.0292 95.8302 59.0076 95.8178 58.9859C95.7993 58.9458 95.7746 58.9057 95.753 58.8655C95.7282 58.8223 95.7066 58.7729 95.6788 58.7296C95.6788 58.7265 95.6758 58.7235 95.6727 58.7204C95.6511 58.6895 95.6264 58.6679 95.6047 58.6401C95.5769 58.603 95.5461 58.566 95.5152 58.532C95.4936 58.5073 95.4719 58.4795 95.4472 58.4548C95.404 58.4116 95.3515 58.3745 95.3021 58.3374C95.3021 58.3374 95.299 58.3374 95.299 58.3344C95.2774 58.3158 95.2589 58.2942 95.2342 58.2757L66.4601 37.5607V1.84669C66.4601 0.827613 65.6325 0 64.6135 0H1.84663C0.827586 0 0 0.827613 0 1.84669V94.1533C0 95.1724 0.827586 96 1.84663 96H94.1503C94.2676 96 94.3788 95.9877 94.49 95.966C94.527 95.9599 94.5641 95.9475 94.598 95.9382C94.6721 95.9197 94.7401 95.8981 94.8111 95.8734C94.8482 95.8579 94.8852 95.8425 94.9254 95.8271C94.9933 95.7962 95.0551 95.7622 95.1199 95.7221C95.1508 95.7035 95.1817 95.685 95.2095 95.6665C95.2928 95.6078 95.37 95.5461 95.4442 95.475C95.4472 95.4719 95.4534 95.4658 95.4596 95.4627C95.5368 95.3855 95.6047 95.3021 95.6665 95.2125C95.685 95.1847 95.7036 95.1539 95.7221 95.123C95.7622 95.0612 95.7962 94.9964 95.8271 94.9284C95.8456 94.8883 95.861 94.8451 95.8765 94.8049C95.8888 94.774 95.9043 94.7462 95.9135 94.7153C95.9228 94.6814 95.929 94.6443 95.9382 94.6104C95.9475 94.5702 95.9599 94.527 95.966 94.4837C95.9815 94.3973 95.9907 94.3046 95.9938 94.2151C95.9938 94.1965 96 94.178 96 94.1595V84.9291C96 83.9101 95.1724 83.0825 94.1534 83.0825C93.1343 83.0825 92.3067 83.9101 92.3067 84.9291V90.6143L72.6917 76.8846L92.3067 63.3V77.5455C92.3067 78.5645 93.1343 79.3922 94.1534 79.3922C95.1724 79.3922 96 78.5645 96 77.5455V59.7765C96 59.7765 96 59.7703 96 59.7672L95.9969 59.7611ZM66.4601 92.3097V81.1956L69.4555 79.1204L88.2954 92.3097H66.4601ZM3.69326 92.3097V3.69338H62.7669V92.3097H3.69326ZM90.9511 59.7425L90.9079 59.7703L67.8466 75.7451L66.457 76.7055V50.4936L73.2661 55.4624C77.0427 58.2201 82.0576 58.4826 86.0813 56.2375L90.9449 59.7394L90.9511 59.7425ZM66.4601 42.1681L82.4128 53.7794C80.0628 54.4094 77.4905 53.9709 75.4462 52.4824L66.4601 45.9233V42.1681ZM18.4632 9.23035C18.4632 8.21128 19.2908 7.38367 20.3098 7.38367H46.1534C47.1724 7.38367 48 8.21128 48 9.23035C48 10.2494 47.1724 11.077 46.1534 11.077H20.3067C19.2877 11.077 18.4601 10.2525 18.4601 9.23035H18.4632ZM25.8466 40.6148C24.8276 40.6148 24 39.7872 24 38.7681C24 37.749 24.8276 36.9245 25.8466 36.9245H40.6166C41.6356 36.9245 42.4632 37.7521 42.4632 38.7681C42.4632 39.7841 41.6356 40.6148 40.6166 40.6148H25.8466ZM57.2301 46.1518C57.6778 46.1518 58.0793 46.3154 58.3973 46.581C58.808 46.9207 59.0767 47.4272 59.0767 47.9985C59.0767 49.0175 58.2491 49.8451 57.2301 49.8451H14.7699C13.7509 49.8451 12.9233 49.0175 12.9233 47.9985C12.9233 46.9794 13.7509 46.1518 14.7699 46.1518H57.2301ZM7.38652 62.7689C7.38652 61.7498 8.2141 60.9222 9.23314 60.9222H57.2331C57.8137 60.9222 58.3263 61.1939 58.6629 61.6139C58.9192 61.932 59.0798 62.3304 59.0798 62.7658C59.0798 63.7849 58.2522 64.6125 57.2331 64.6125H9.23006C8.21101 64.6125 7.38652 63.788 7.38652 62.7689ZM7.38652 55.3852C7.38652 54.3661 8.2141 53.5385 9.23314 53.5385H57.2331C58.2522 53.5385 59.0798 54.3661 59.0798 55.3852C59.0798 56.4043 58.2522 57.2319 57.2331 57.2319H9.23006C8.21101 57.2319 7.38652 56.4074 7.38652 55.3852ZM31.3865 70.1556C31.3865 71.1747 30.5589 72.0023 29.5399 72.0023H9.23006C8.21101 72.0023 7.38343 71.1747 7.38343 70.1556C7.38343 69.1366 8.21101 68.3089 9.23006 68.3089H29.5368C30.5558 68.3089 31.3834 69.1335 31.3834 70.1556H31.3865ZM9.23006 16.6171C9.23006 15.598 10.0576 14.7704 11.0767 14.7704H29.5368C30.5558 14.7704 31.3834 15.598 31.3834 16.6171C31.3834 17.6362 30.5558 18.4638 29.5368 18.4638H11.0767C10.0576 18.4638 9.23006 17.6362 9.23006 16.6171ZM36.9233 14.7704H55.3865C56.4056 14.7704 57.2331 15.598 57.2331 16.6171C57.2331 17.6362 56.4056 18.4638 55.3865 18.4638H36.9233C35.9043 18.4638 35.0767 17.6362 35.0767 16.6171C35.0767 15.598 35.9043 14.7704 36.9233 14.7704Z" fill="black"/>
</svg>
